<mxfile host="app.diagrams.net" modified="2021-05-31T01:02:39.543Z" agent="5.0 (X11)" etag="El0-djAGrLWHe_pNFnPX" version="14.7.3" type="github">
  <diagram id="q2G_-PPmdE-SMA_Du7N_" name="Page-1">
    <mxGraphModel dx="1823" dy="722" grid="1" gridSize="10" guides="1" tooltips="1" connect="1" arrows="1" fold="1" page="1" pageScale="1" pageWidth="850" pageHeight="1100" math="0" shadow="0">
      <root>
        <mxCell id="0" />
        <mxCell id="1" parent="0" />
        <mxCell id="tgCxKbZeOhLsTXyDdAwm-7" value="" style="ellipse;shape=cloud;whiteSpace=wrap;html=1;align=right;strokeColor=#CCCCCC;fillColor=none;" vertex="1" parent="1">
          <mxGeometry x="450" y="172" width="174" height="128" as="geometry" />
        </mxCell>
        <mxCell id="lL4FD40Lk23T4WLXlxyA-21" value="" style="rounded=0;whiteSpace=wrap;html=1;strokeColor=#CCCCCC;" parent="1" vertex="1">
          <mxGeometry x="367.5" y="346" width="242.5" height="144" as="geometry" />
        </mxCell>
        <mxCell id="lL4FD40Lk23T4WLXlxyA-22" value="wg0.conf" style="rounded=0;whiteSpace=wrap;html=1;align=center;strokeColor=#000033;fontColor=#000033;" parent="1" vertex="1">
          <mxGeometry x="496" y="336" width="60" height="20" as="geometry" />
        </mxCell>
        <mxCell id="lL4FD40Lk23T4WLXlxyA-11" value="" style="rounded=0;whiteSpace=wrap;html=1;strokeColor=#CCCCCC;" parent="1" vertex="1">
          <mxGeometry x="81.5" y="346" width="238.5" height="144" as="geometry" />
        </mxCell>
        <mxCell id="lL4FD40Lk23T4WLXlxyA-1" value="" style="aspect=fixed;perimeter=ellipsePerimeter;html=1;align=center;shadow=0;dashed=0;spacingTop=3;image;image=img/lib/active_directory/generic_server.svg;" parent="1" vertex="1">
          <mxGeometry x="90" y="210" width="50.4" height="90" as="geometry" />
        </mxCell>
        <mxCell id="lL4FD40Lk23T4WLXlxyA-3" value="" style="html=1;strokeWidth=1;shadow=0;dashed=0;shape=mxgraph.ios7.misc.vpn;fillColor=#007AFF;strokeColor=none;buttonText=;strokeColor2=#222222;fontColor=#222222;fontSize=8;verticalLabelPosition=bottom;verticalAlign=top;align=center;" parent="1" vertex="1">
          <mxGeometry x="310" y="229" width="40" height="42" as="geometry" />
        </mxCell>
        <mxCell id="lL4FD40Lk23T4WLXlxyA-4" value="" style="endArrow=none;dashed=1;html=1;" parent="1" edge="1">
          <mxGeometry width="50" height="50" relative="1" as="geometry">
            <mxPoint x="150" y="260" as="sourcePoint" />
            <mxPoint x="480" y="260" as="targetPoint" />
          </mxGeometry>
        </mxCell>
        <mxCell id="lL4FD40Lk23T4WLXlxyA-5" value="10.0.14.3" style="text;html=1;strokeColor=none;fillColor=none;align=center;verticalAlign=middle;whiteSpace=wrap;rounded=0;fontColor=#808080;" parent="1" vertex="1">
          <mxGeometry x="160" y="262" width="40" height="20" as="geometry" />
        </mxCell>
        <mxCell id="lL4FD40Lk23T4WLXlxyA-6" value="10.0.14.0/24" style="text;html=1;align=center;verticalAlign=middle;resizable=0;points=[];autosize=1;strokeColor=none;" parent="1" vertex="1">
          <mxGeometry x="290" y="271" width="80" height="20" as="geometry" />
        </mxCell>
        <mxCell id="lL4FD40Lk23T4WLXlxyA-8" value="10.0.14.4" style="text;html=1;strokeColor=none;fillColor=none;align=center;verticalAlign=middle;whiteSpace=wrap;rounded=0;fontColor=#808080;" parent="1" vertex="1">
          <mxGeometry x="440" y="262" width="40" height="20" as="geometry" />
        </mxCell>
        <mxCell id="lL4FD40Lk23T4WLXlxyA-10" value="&lt;div&gt;private IP&lt;br&gt;&lt;/div&gt;&lt;div&gt;172.16.1.10&lt;/div&gt;" style="text;html=1;strokeColor=none;fillColor=none;align=left;verticalAlign=middle;whiteSpace=wrap;rounded=0;" parent="1" vertex="1">
          <mxGeometry x="81.5" y="300" width="70" height="20" as="geometry" />
        </mxCell>
        <mxCell id="lL4FD40Lk23T4WLXlxyA-12" value="&lt;div&gt;[Interface]&lt;/div&gt;&lt;div&gt;Address = 10.0.14.3/24&lt;/div&gt;&lt;div&gt;PrivateKey = &amp;lt;siteAPrivateKey&amp;gt;&lt;/div&gt;&lt;div&gt;&lt;br&gt;&lt;/div&gt;&lt;div&gt;[Peer]&lt;/div&gt;&lt;div&gt;PublicKey = &amp;lt;siteBPublicKey&amp;gt;&lt;/div&gt;&lt;div&gt;AllowedIPs = 10.0.14.4/32, 172.17.0.0/16&lt;/div&gt;&lt;div&gt;Endpoint = &amp;lt;SiteB-publicIP&amp;gt;:51820&lt;br&gt;&lt;/div&gt;&lt;div&gt;&lt;br&gt;&lt;/div&gt;" style="text;html=1;strokeColor=none;fillColor=none;align=left;verticalAlign=top;whiteSpace=wrap;rounded=0;" parent="1" vertex="1">
          <mxGeometry x="90" y="361" width="230" height="110" as="geometry" />
        </mxCell>
        <mxCell id="lL4FD40Lk23T4WLXlxyA-13" value="&lt;div&gt;&amp;lt;SiteA-publicIP&amp;gt;:51820/udp&lt;/div&gt;" style="text;html=1;strokeColor=none;fillColor=none;align=left;verticalAlign=middle;whiteSpace=wrap;rounded=0;" parent="1" vertex="1">
          <mxGeometry x="140.4" y="200" width="159.6" height="20" as="geometry" />
        </mxCell>
        <mxCell id="lL4FD40Lk23T4WLXlxyA-16" value="&lt;div&gt;[Interface]&lt;/div&gt;&lt;div&gt;Address = 10.0.14.4/24&lt;/div&gt;&lt;div&gt;PrivateKey = &amp;lt;siteBPrivateKey&amp;gt;&lt;/div&gt;&lt;div&gt;&lt;br&gt;&lt;/div&gt;&lt;div&gt;[Peer]&lt;/div&gt;&lt;div&gt;PublicKey = &amp;lt;siteAPublicKey&amp;gt;&lt;/div&gt;&lt;div&gt;AllowedIPs = 10.0.14.3/32, 172.16.0.0/16&lt;/div&gt;&lt;div&gt;Endpoint = &amp;lt;siteA-publicIP&amp;gt;&lt;br&gt;&lt;/div&gt;&lt;div&gt;&lt;br&gt;&lt;/div&gt;" style="text;html=1;fillColor=none;align=left;verticalAlign=top;whiteSpace=wrap;rounded=0;perimeterSpacing=0;" parent="1" vertex="1">
          <mxGeometry x="380" y="359" width="250" height="110" as="geometry" />
        </mxCell>
        <mxCell id="lL4FD40Lk23T4WLXlxyA-18" value="wg0.conf" style="rounded=0;whiteSpace=wrap;html=1;align=center;strokeColor=#000033;fontColor=#000033;" parent="1" vertex="1">
          <mxGeometry x="210" y="336" width="60" height="20" as="geometry" />
        </mxCell>
        <mxCell id="lL4FD40Lk23T4WLXlxyA-24" value="WireGuard SiteA" style="text;html=1;align=center;verticalAlign=middle;resizable=0;points=[];autosize=1;strokeColor=none;fontColor=#000033;fontSize=18;" parent="1" vertex="1">
          <mxGeometry x="86.5" y="160" width="150" height="30" as="geometry" />
        </mxCell>
        <mxCell id="tgCxKbZeOhLsTXyDdAwm-1" value="" style="aspect=fixed;perimeter=ellipsePerimeter;html=1;align=center;shadow=0;dashed=0;spacingTop=3;image;image=img/lib/active_directory/generic_server.svg;" vertex="1" parent="1">
          <mxGeometry x="505.6" y="210" width="50.4" height="90" as="geometry" />
        </mxCell>
        <mxCell id="tgCxKbZeOhLsTXyDdAwm-2" value="WireGuard SiteB" style="text;html=1;align=center;verticalAlign=middle;resizable=0;points=[];autosize=1;strokeColor=none;fontColor=#000033;fontSize=18;" vertex="1" parent="1">
          <mxGeometry x="417.5" y="160" width="150" height="30" as="geometry" />
        </mxCell>
        <mxCell id="tgCxKbZeOhLsTXyDdAwm-3" value="&lt;div&gt;&amp;lt;SiteB-publicIP&amp;gt;:51820/udp&lt;/div&gt;" style="text;html=1;strokeColor=none;fillColor=none;align=right;verticalAlign=middle;whiteSpace=wrap;rounded=0;" vertex="1" parent="1">
          <mxGeometry x="340" y="200" width="169.6" height="20" as="geometry" />
        </mxCell>
        <mxCell id="tgCxKbZeOhLsTXyDdAwm-4" value="&lt;div&gt;private IP&lt;br&gt;&lt;/div&gt;&lt;div&gt;172.17.1.10&lt;/div&gt;" style="text;html=1;strokeColor=none;fillColor=none;align=left;verticalAlign=middle;whiteSpace=wrap;rounded=0;" vertex="1" parent="1">
          <mxGeometry x="520" y="300" width="70" height="20" as="geometry" />
        </mxCell>
        <mxCell id="tgCxKbZeOhLsTXyDdAwm-9" value="" style="ellipse;shape=cloud;whiteSpace=wrap;html=1;align=right;strokeColor=#CCCCCC;fillColor=none;" vertex="1" parent="1">
          <mxGeometry x="36" y="172" width="174" height="128" as="geometry" />
        </mxCell>
        <mxCell id="tgCxKbZeOhLsTXyDdAwm-10" value="" style="image;html=1;image=img/lib/clip_art/networking/Cloud_Rack_Private_128x128.png;strokeColor=#CCCCCC;fillColor=none;align=right;" vertex="1" parent="1">
          <mxGeometry x="580" y="191" width="80" height="80" as="geometry" />
        </mxCell>
        <mxCell id="tgCxKbZeOhLsTXyDdAwm-11" value="" style="image;html=1;image=img/lib/clip_art/networking/Cloud_Rack_Private_128x128.png;strokeColor=#CCCCCC;fillColor=none;align=right;" vertex="1" parent="1">
          <mxGeometry x="1.5" y="170" width="80" height="80" as="geometry" />
        </mxCell>
        <mxCell id="tgCxKbZeOhLsTXyDdAwm-12" value="&lt;div&gt;Private&lt;/div&gt;&lt;div&gt;1722.17.2.129&lt;br&gt;&lt;/div&gt;" style="text;html=1;align=center;verticalAlign=middle;resizable=0;points=[];autosize=1;strokeColor=none;" vertex="1" parent="1">
          <mxGeometry x="585" y="172" width="90" height="30" as="geometry" />
        </mxCell>
        <mxCell id="tgCxKbZeOhLsTXyDdAwm-13" value="&lt;div&gt;Private&lt;/div&gt;&lt;div&gt;172.16.2.129&lt;br&gt;&lt;/div&gt;" style="text;html=1;align=center;verticalAlign=middle;resizable=0;points=[];autosize=1;strokeColor=none;" vertex="1" parent="1">
          <mxGeometry x="-13.5" y="241" width="90" height="30" as="geometry" />
        </mxCell>
      </root>
    </mxGraphModel>
  </diagram>
</mxfile>
